<svg xmlns="http://www.w3.org/2000/svg" version="1.1" xmlns:xlink="http://www.w3.org/1999/xlink" xmlns:svgjs="http://svgjs.dev/svgjs" width="128" height="128" viewBox="0 0 128 128"><g transform="matrix(0.8046875,0,0,0.8046875,12.333870967741937,12.333870967741937)"><svg viewBox="0 0 155 155" data-background-color="#ffffff" preserveAspectRatio="xMidYMid meet" height="128" width="128" xmlns="http://www.w3.org/2000/svg" xmlns:xlink="http://www.w3.org/1999/xlink"><g id="tight-bounds" transform="matrix(1,0,0,1,0.25,0.25)"><svg viewBox="0 0 154.5 154.5" height="154.5" width="154.5"><g><svg></svg></g><g><svg viewBox="0 0 154.5 154.5" height="154.5" width="154.5"><g transform="matrix(1,0,0,1,50.22785032258065,43.83165)"><svg viewBox="0 0 54.04429935483871 66.8367" height="66.8367" width="54.04429935483871"><g><svg viewBox="0 0 54.04429935483871 66.8367" height="66.8367" width="54.04429935483871"><g><svg viewBox="0 0 54.04429935483871 66.8367" height="66.8367" width="54.04429935483871"><g id="textblocktransform"><svg viewBox="0 0 54.04429935483871 66.8367" height="66.8367" width="54.04429935483871" id="textblock"><g><svg viewBox="0 0 54.04429935483871 66.8367" height="66.8367" width="54.04429935483871"><g transform="matrix(1,0,0,1,0,0)"><svg width="54.04429935483871" viewBox="-3.1 -31 38.6 47.5" height="66.8367" data-palette-color="#8b3c7f"><path d="M10.5-26.8L10.5-22.9 10.7-22.9Q12.3-24.8 14.15-25.9 16-27 18.45-27L18.45-27Q21.3-27 23.68-25.98 26.05-24.95 27.8-23.1 29.55-21.25 30.53-18.73 31.5-16.2 31.5-13.2L31.5-13.2Q31.5-10.15 30.5-7.63 29.5-5.1 27.75-3.3 26-1.5 23.6-0.5 21.2 0.5 18.4 0.5L18.4 0.5Q16.1 0.5 14.23-0.28 12.35-1.05 10.7-2.8L10.7-2.8 10.7 4.5Q10.7 6.5 10.9 7.7 11.1 8.9 11.7 9.55 12.3 10.2 13.43 10.45 14.55 10.7 16.4 10.75L16.4 10.75 16.4 12.5 1 12.5 1 10.75Q2.5 10.7 3.43 10.45 4.35 10.2 4.88 9.55 5.4 8.9 5.6 7.78 5.8 6.65 5.8 4.85L5.8 4.85 5.8-13.85Q5.8-16.75 5.73-18.6 5.65-20.45 5.45-21.15L5.45-21.15Q5.2-22.35 4.3-22.78 3.4-23.2 0.9-23.2L0.9-23.2 0.9-24.9 10.5-26.8ZM12-21.45L12-21.45Q11.35-20.45 11.03-19.07 10.7-17.7 10.7-15.5L10.7-15.5 10.7-11.6Q10.7-10.25 10.78-9.28 10.85-8.3 11-7.6 11.15-6.9 11.4-6.35 11.65-5.8 12.05-5.3L12.05-5.3Q13.2-3.7 14.8-2.83 16.4-1.95 18.15-1.95L18.15-1.95Q21.6-1.95 23.73-4.85 25.85-7.75 25.85-13L25.85-13Q25.85-15.6 25.28-17.73 24.7-19.85 23.65-21.38 22.6-22.9 21.13-23.75 19.65-24.6 17.85-24.6L17.85-24.6Q16.05-24.6 14.53-23.78 13-22.95 12-21.45Z" opacity="1" transform="matrix(1,0,0,1,0,0)" fill="#8b3c7f" class="undefined-text-0" data-fill-palette-color="primary" id="text-0"></path></svg></g></svg></g></svg></g></svg></g></svg></g></svg></g><g mask="url(&quot;#7c91ad19-6de8-4aa9-8edc-712a14986c0b&quot;)"><g transform="matrix(1.6308939437689156, 0, 0, 1.6308939437689156, 11.42385864159904, 1)"><svg xmlns="http://www.w3.org/2000/svg" xmlns:xlink="http://www.w3.org/1999/xlink" version="1.1" x="0" y="0" viewBox="9.638 3.247 80.72399999999999 93.507" enable-background="new 0 0 100 100" xml:space="preserve" height="93.507" width="80.72399999999999" class="icon-none" data-fill-palette-color="accent" id="none"><g fill="#8b3c7f" data-fill-palette-color="accent"><g fill="#8b3c7f" data-fill-palette-color="accent"><polygon points="36.703,11.011 9.638,26.636 9.638,38.757 36.703,23.131 63.767,38.757 63.767,26.636   " fill="#8b3c7f" data-fill-palette-color="accent"></polygon></g><g fill="#8b3c7f" data-fill-palette-color="accent"><polygon points="63.298,89.092 36.233,73.467 36.233,61.348 63.298,76.973 90.362,61.348 90.362,73.467   " fill="#8b3c7f" data-fill-palette-color="accent"></polygon></g><g fill="#8b3c7f" data-fill-palette-color="accent"><polygon points="9.638,42.012 36.703,26.386 47.198,32.446 20.134,48.072 20.134,79.324 9.638,73.264   " fill="#8b3c7f" data-fill-palette-color="accent"></polygon></g><g fill="#8b3c7f" data-fill-palette-color="accent"><polygon points="77.083,18.872 50.018,3.247 39.522,9.307 66.586,24.932 66.586,56.184 77.083,50.124   " fill="#8b3c7f" data-fill-palette-color="accent"></polygon></g><g fill="#8b3c7f" data-fill-palette-color="accent"><polygon points="23.01,81.127 23.011,49.876 33.507,43.816 33.507,75.068 60.571,90.693 50.075,96.754   " fill="#8b3c7f" data-fill-palette-color="accent"></polygon></g><g fill="#8b3c7f" data-fill-palette-color="accent"><polygon points="90.362,58.092 90.362,26.84 79.866,20.78 79.866,52.031 52.802,67.658 63.298,73.719   " fill="#8b3c7f" data-fill-palette-color="accent"></polygon></g></g></svg></g></g><mask id="7c91ad19-6de8-4aa9-8edc-712a14986c0b"><rect width="250" height="250" fill="white"></rect><g transform="matrix(1,0,0,1,50.22785032258065,43.83165)"><svg viewBox="0 0 54.04429935483871 66.8367" height="66.8367" width="54.04429935483871"><g><svg viewBox="0 0 54.04429935483871 66.8367" height="66.8367" width="54.04429935483871"><g><svg viewBox="0 0 54.04429935483871 66.8367" height="66.8367" width="54.04429935483871"><g id="SvgjsG1002"><svg viewBox="0 0 54.04429935483871 66.8367" height="66.8367" width="54.04429935483871" id="SvgjsSvg1001"><g><svg viewBox="0 0 54.04429935483871 66.8367" height="66.8367" width="54.04429935483871"><g transform="matrix(1,0,0,1,0,0)"><svg width="54.04429935483871" viewBox="-3.1 -31 38.6 47.5" height="66.8367" data-palette-color="#8b3c7f"><path d="M10.5-26.8L10.5-22.9 10.7-22.9Q12.3-24.8 14.15-25.9 16-27 18.45-27L18.45-27Q21.3-27 23.68-25.98 26.05-24.95 27.8-23.1 29.55-21.25 30.53-18.73 31.5-16.2 31.5-13.2L31.5-13.2Q31.5-10.15 30.5-7.63 29.5-5.1 27.75-3.3 26-1.5 23.6-0.5 21.2 0.5 18.4 0.5L18.4 0.5Q16.1 0.5 14.23-0.28 12.35-1.05 10.7-2.8L10.7-2.8 10.7 4.5Q10.7 6.5 10.9 7.7 11.1 8.9 11.7 9.55 12.3 10.2 13.43 10.45 14.55 10.7 16.4 10.75L16.4 10.75 16.4 12.5 1 12.5 1 10.75Q2.5 10.7 3.43 10.45 4.35 10.2 4.88 9.55 5.4 8.9 5.6 7.78 5.8 6.65 5.8 4.85L5.8 4.85 5.8-13.85Q5.8-16.75 5.73-18.6 5.65-20.45 5.45-21.15L5.45-21.15Q5.2-22.35 4.3-22.78 3.4-23.2 0.9-23.2L0.9-23.2 0.9-24.9 10.5-26.8ZM12-21.45L12-21.45Q11.35-20.45 11.03-19.07 10.7-17.7 10.7-15.5L10.7-15.5 10.7-11.6Q10.7-10.25 10.78-9.28 10.85-8.3 11-7.6 11.15-6.9 11.4-6.35 11.65-5.8 12.05-5.3L12.05-5.3Q13.2-3.7 14.8-2.83 16.4-1.95 18.15-1.95L18.15-1.95Q21.6-1.95 23.73-4.85 25.85-7.75 25.85-13L25.85-13Q25.85-15.6 25.28-17.73 24.7-19.85 23.65-21.38 22.6-22.9 21.13-23.75 19.65-24.6 17.85-24.6L17.85-24.6Q16.05-24.6 14.53-23.78 13-22.95 12-21.45Z" opacity="1" transform="matrix(1,0,0,1,0,0)" fill="#8b3c7f" class="undefined-text-0" data-fill-palette-color="primary" id="SvgjsPath1000" stroke-width="7" stroke="black" stroke-linejoin="round"></path></svg></g></svg></g></svg></g></svg></g></svg></g></svg></g></mask></svg></g><defs></defs></svg><rect width="154.5" height="154.5" fill="none" stroke="none" visibility="hidden"></rect></g></svg></g></svg>